pkt_pts_time=0.000000
pkt_pts_time=0.500500
pkt_pts_time=1.001000
pkt_pts_time=1.501500
pkt_pts_time=2.002000
pkt_pts_time=2.502500
pkt_pts_time=3.003000
pkt_pts_time=3.503500
pkt_pts_time=4.004000
pkt_pts_time=4.504500
pkt_pts_time=5.005000
pkt_pts_time=5.505500
pkt_pts_time=6.006000
pkt_pts_time=6.506500
pkt_pts_time=7.007000
pkt_pts_time=7.507500
pkt_pts_time=8.008000
pkt_pts_time=8.508500
pkt_pts_time=9.009000
pkt_pts_time=9.509500
pkt_pts_time=10.010000
pkt_pts_time=10.510500
pkt_pts_time=11.011000
pkt_pts_time=11.511500
pkt_pts_time=12.012000
pkt_pts_time=12.512500
pkt_pts_time=13.013000
pkt_pts_time=13.513500
pkt_pts_time=14.014000
pkt_pts_time=14.514500
pkt_pts_time=15.015000
pkt_pts_time=15.515500
pkt_pts_time=16.016000
pkt_pts_time=16.516500
pkt_pts_time=17.017000
pkt_pts_time=17.517500
pkt_pts_time=18.018000
pkt_pts_time=18.518500
pkt_pts_time=19.019000
pkt_pts_time=19.519500
pkt_pts_time=20.020000
pkt_pts_time=20.520500
pkt_pts_time=21.021000
pkt_pts_time=21.521500
pkt_pts_time=22.022000
pkt_pts_time=22.522500
pkt_pts_time=23.023000
pkt_pts_time=23.523500
pkt_pts_time=24.024000
pkt_pts_time=24.524500
pkt_pts_time=25.025000
pkt_pts_time=25.525500
pkt_pts_time=26.026000
pkt_pts_time=26.526500
pkt_pts_time=27.027000
pkt_pts_time=27.527500
pkt_pts_time=28.028000
pkt_pts_time=28.528500
pkt_pts_time=29.029000
pkt_pts_time=29.529500
pkt_pts_time=30.030000
pkt_pts_time=30.530500
pkt_pts_time=31.031000
pkt_pts_time=31.531500
pkt_pts_time=32.032000
pkt_pts_time=32.532500
pkt_pts_time=33.033000
pkt_pts_time=33.533500
pkt_pts_time=34.034000
pkt_pts_time=34.534500
pkt_pts_time=35.035000
pkt_pts_time=35.535500
pkt_pts_time=36.036000
pkt_pts_time=36.536500
pkt_pts_time=37.037000
pkt_pts_time=37.537500
pkt_pts_time=38.038000
pkt_pts_time=38.538500
pkt_pts_time=39.039000
pkt_pts_time=39.539500
pkt_pts_time=40.040000
pkt_pts_time=40.540500
pkt_pts_time=41.041000
pkt_pts_time=41.541500
pkt_pts_time=42.042000
pkt_pts_time=42.542500
pkt_pts_time=43.043000
pkt_pts_time=43.543500
pkt_pts_time=44.044000
pkt_pts_time=44.544500
pkt_pts_time=45.045000
pkt_pts_time=45.545500
pkt_pts_time=46.046000
pkt_pts_time=46.546500
pkt_pts_time=47.047000
pkt_pts_time=47.547500
pkt_pts_time=48.048000
pkt_pts_time=48.548500
pkt_pts_time=49.049000
pkt_pts_time=49.549500
pkt_pts_time=50.050000
pkt_pts_time=50.550500
pkt_pts_time=51.051000
pkt_pts_time=51.551500
pkt_pts_time=52.052000
pkt_pts_time=52.552500
pkt_pts_time=53.053000
pkt_pts_time=53.553500
pkt_pts_time=54.054000
pkt_pts_time=54.554500
pkt_pts_time=55.055000
pkt_pts_time=55.555500
pkt_pts_time=56.056000
pkt_pts_time=56.556500
pkt_pts_time=57.057000
pkt_pts_time=57.557500
pkt_pts_time=58.058000
pkt_pts_time=58.558500
pkt_pts_time=59.059000
pkt_pts_time=59.559500
pkt_pts_time=60.060000
pkt_pts_time=60.560500
pkt_pts_time=61.061000
pkt_pts_time=61.561500
pkt_pts_time=62.062000
pkt_pts_time=62.562500
pkt_pts_time=63.063000
pkt_pts_time=63.563500
pkt_pts_time=64.064000
pkt_pts_time=64.564500
pkt_pts_time=65.065000
pkt_pts_time=65.565500
pkt_pts_time=66.066000
pkt_pts_time=66.566500
pkt_pts_time=67.067000
pkt_pts_time=67.567500
pkt_pts_time=68.068000
pkt_pts_time=68.568500
pkt_pts_time=69.069000
pkt_pts_time=69.569500
pkt_pts_time=70.070000
pkt_pts_time=70.570500
pkt_pts_time=71.071000
pkt_pts_time=71.571500
pkt_pts_time=72.072000
pkt_pts_time=72.572500
pkt_pts_time=73.073000
pkt_pts_time=73.573500
pkt_pts_time=74.074000
pkt_pts_time=74.574500
pkt_pts_time=75.075000
pkt_pts_time=75.575500
pkt_pts_time=76.076000
pkt_pts_time=76.576500
pkt_pts_time=77.077000
pkt_pts_time=77.577500
pkt_pts_time=78.078000
pkt_pts_time=78.578500
pkt_pts_time=79.079000
pkt_pts_time=79.579500
pkt_pts_time=80.080000
pkt_pts_time=80.580500
pkt_pts_time=81.081000
pkt_pts_time=81.581500
pkt_pts_time=82.082000
pkt_pts_time=82.582500
pkt_pts_time=83.083000
pkt_pts_time=83.583500
pkt_pts_time=84.084000
pkt_pts_time=84.584500
pkt_pts_time=85.085000
pkt_pts_time=85.585500
pkt_pts_time=86.086000
pkt_pts_time=86.586500
pkt_pts_time=87.087000
pkt_pts_time=87.587500
pkt_pts_time=88.088000
pkt_pts_time=88.588500
pkt_pts_time=89.089000
pkt_pts_time=89.589500
pkt_pts_time=90.090000
pkt_pts_time=90.590500
pkt_pts_time=91.091000
pkt_pts_time=91.591500
pkt_pts_time=92.092000
pkt_pts_time=92.592500
pkt_pts_time=93.093000
pkt_pts_time=93.593500
pkt_pts_time=94.094000
pkt_pts_time=94.594500
pkt_pts_time=95.095000
pkt_pts_time=95.595500
pkt_pts_time=96.096000
pkt_pts_time=96.596500
pkt_pts_time=97.097000
pkt_pts_time=97.597500
pkt_pts_time=98.098000
pkt_pts_time=98.598500
pkt_pts_time=99.099000
pkt_pts_time=99.599500
pkt_pts_time=100.100000
pkt_pts_time=100.600500
pkt_pts_time=101.101000
pkt_pts_time=101.601500
pkt_pts_time=102.102000
pkt_pts_time=102.602500
pkt_pts_time=103.103000
pkt_pts_time=103.603500
pkt_pts_time=104.104000
pkt_pts_time=104.604500
pkt_pts_time=105.105000
pkt_pts_time=105.605500
pkt_pts_time=106.106000
pkt_pts_time=106.606500
pkt_pts_time=107.107000
pkt_pts_time=107.607500
pkt_pts_time=108.108000
pkt_pts_time=108.608500
pkt_pts_time=109.109000
pkt_pts_time=109.609500
pkt_pts_time=110.110000
pkt_pts_time=110.610500
pkt_pts_time=111.111000
pkt_pts_time=111.611500
pkt_pts_time=112.112000
pkt_pts_time=112.612500
pkt_pts_time=113.113000
pkt_pts_time=113.613500
pkt_pts_time=114.114000
pkt_pts_time=114.614500
pkt_pts_time=115.115000
pkt_pts_time=115.615500
pkt_pts_time=116.116000
pkt_pts_time=116.616500
pkt_pts_time=117.117000
pkt_pts_time=117.617500
pkt_pts_time=118.118000
pkt_pts_time=118.618500
pkt_pts_time=119.119000
pkt_pts_time=119.619500
pkt_pts_time=120.120000
pkt_pts_time=120.620500
pkt_pts_time=121.121000
pkt_pts_time=121.621500
pkt_pts_time=122.122000
pkt_pts_time=122.622500
pkt_pts_time=123.123000
pkt_pts_time=123.623500
pkt_pts_time=124.124000
pkt_pts_time=124.624500
pkt_pts_time=125.125000
pkt_pts_time=125.625500
pkt_pts_time=126.126000
pkt_pts_time=126.626500
pkt_pts_time=127.127000
pkt_pts_time=127.627500
pkt_pts_time=128.128000
pkt_pts_time=128.628500
pkt_pts_time=129.129000
pkt_pts_time=129.629500
pkt_pts_time=130.130000
pkt_pts_time=130.630500
pkt_pts_time=131.131000
pkt_pts_time=131.631500
pkt_pts_time=132.132000
pkt_pts_time=132.632500
pkt_pts_time=133.133000
pkt_pts_time=133.633500
pkt_pts_time=134.134000
pkt_pts_time=134.634500
pkt_pts_time=135.135000
pkt_pts_time=135.635500
pkt_pts_time=136.136000
pkt_pts_time=136.636500
pkt_pts_time=137.137000
pkt_pts_time=137.637500
pkt_pts_time=138.138000
pkt_pts_time=138.638500
pkt_pts_time=139.139000
pkt_pts_time=139.639500
pkt_pts_time=140.140000
pkt_pts_time=140.640500
pkt_pts_time=141.141000
pkt_pts_time=141.641500
pkt_pts_time=142.142000
pkt_pts_time=142.642500
pkt_pts_time=143.143000
pkt_pts_time=143.643500
pkt_pts_time=144.144000
pkt_pts_time=144.644500
pkt_pts_time=145.145000
pkt_pts_time=145.645500
pkt_pts_time=146.146000
pkt_pts_time=146.646500
pkt_pts_time=147.147000
pkt_pts_time=147.647500
pkt_pts_time=148.148000
pkt_pts_time=148.648500
pkt_pts_time=149.149000
pkt_pts_time=149.649500
pkt_pts_time=150.150000
pkt_pts_time=150.650500
pkt_pts_time=151.151000
pkt_pts_time=151.651500
pkt_pts_time=152.152000
pkt_pts_time=152.652500
pkt_pts_time=153.153000
pkt_pts_time=153.653500
pkt_pts_time=154.154000
pkt_pts_time=154.654500
pkt_pts_time=155.155000
pkt_pts_time=155.655500
pkt_pts_time=156.156000
pkt_pts_time=156.656500
pkt_pts_time=157.157000
pkt_pts_time=157.657500
pkt_pts_time=158.158000
pkt_pts_time=158.658500
pkt_pts_time=159.159000
pkt_pts_time=159.659500
pkt_pts_time=160.160000
pkt_pts_time=160.660500
pkt_pts_time=161.161000
pkt_pts_time=161.661500
pkt_pts_time=162.162000
pkt_pts_time=162.662500
pkt_pts_time=163.163000
pkt_pts_time=163.663500
pkt_pts_time=164.164000
pkt_pts_time=164.664500
pkt_pts_time=165.165000
pkt_pts_time=165.665500
pkt_pts_time=166.166000
pkt_pts_time=166.666500
pkt_pts_time=167.167000
pkt_pts_time=167.667500
pkt_pts_time=168.168000
pkt_pts_time=168.668500
pkt_pts_time=169.169000
pkt_pts_time=169.669500
pkt_pts_time=170.170000
pkt_pts_time=170.670500
pkt_pts_time=171.171000
pkt_pts_time=171.671500
pkt_pts_time=172.172000
pkt_pts_time=172.672500
pkt_pts_time=173.173000
pkt_pts_time=173.673500
pkt_pts_time=174.174000
pkt_pts_time=174.674500
pkt_pts_time=175.175000
pkt_pts_time=175.675500
pkt_pts_time=176.176000
pkt_pts_time=176.676500
pkt_pts_time=177.177000
pkt_pts_time=177.677500
pkt_pts_time=178.178000
pkt_pts_time=178.678500
pkt_pts_time=179.179000
pkt_pts_time=179.679500
pkt_pts_time=180.180000
pkt_pts_time=180.680500
pkt_pts_time=181.181000
pkt_pts_time=181.681500
pkt_pts_time=182.182000
pkt_pts_time=182.682500
pkt_pts_time=183.183000
pkt_pts_time=183.683500
pkt_pts_time=184.184000
pkt_pts_time=184.684500
pkt_pts_time=185.185000
pkt_pts_time=185.685500
pkt_pts_time=186.186000
pkt_pts_time=186.686500
pkt_pts_time=187.187000
pkt_pts_time=187.687500
pkt_pts_time=188.188000
pkt_pts_time=188.688500
pkt_pts_time=189.189000
pkt_pts_time=189.689500
pkt_pts_time=190.190000
pkt_pts_time=190.690500
pkt_pts_time=191.191000
pkt_pts_time=191.691500
pkt_pts_time=192.192000
pkt_pts_time=192.692500
pkt_pts_time=193.193000
pkt_pts_time=193.693500
pkt_pts_time=194.194000
pkt_pts_time=194.694500
pkt_pts_time=195.195000
pkt_pts_time=195.695500
pkt_pts_time=196.196000
pkt_pts_time=196.696500
pkt_pts_time=197.197000
pkt_pts_time=197.697500
pkt_pts_time=198.198000
pkt_pts_time=198.698500
pkt_pts_time=199.199000
pkt_pts_time=199.699500
pkt_pts_time=200.200000
pkt_pts_time=200.700500
pkt_pts_time=201.201000
pkt_pts_time=201.701500
pkt_pts_time=202.202000
pkt_pts_time=202.702500
pkt_pts_time=203.203000
pkt_pts_time=203.703500
pkt_pts_time=204.204000
pkt_pts_time=204.704500
pkt_pts_time=205.205000
pkt_pts_time=205.705500
pkt_pts_time=206.206000
pkt_pts_time=206.706500
pkt_pts_time=207.207000
pkt_pts_time=207.707500
pkt_pts_time=208.208000
pkt_pts_time=208.708500
pkt_pts_time=209.209000
pkt_pts_time=209.709500
pkt_pts_time=210.210000
pkt_pts_time=210.710500
pkt_pts_time=211.211000
pkt_pts_time=211.711500
pkt_pts_time=212.212000
pkt_pts_time=212.712500
pkt_pts_time=213.213000
pkt_pts_time=213.713500
pkt_pts_time=214.214000
pkt_pts_time=214.714500
pkt_pts_time=215.215000
pkt_pts_time=215.715500
pkt_pts_time=216.216000
pkt_pts_time=216.716500
pkt_pts_time=217.217000
pkt_pts_time=217.717500
pkt_pts_time=218.218000
pkt_pts_time=218.718500
pkt_pts_time=219.219000
pkt_pts_time=219.719500
pkt_pts_time=220.220000
pkt_pts_time=220.720500
pkt_pts_time=221.221000
pkt_pts_time=221.721500
pkt_pts_time=222.222000
pkt_pts_time=222.722500
pkt_pts_time=223.223000
pkt_pts_time=223.723500
pkt_pts_time=224.224000
pkt_pts_time=224.724500
pkt_pts_time=225.225000
pkt_pts_time=225.725500
pkt_pts_time=226.226000
pkt_pts_time=226.726500
pkt_pts_time=227.227000
pkt_pts_time=227.727500
pkt_pts_time=228.228000
pkt_pts_time=228.728500
pkt_pts_time=229.229000
pkt_pts_time=229.729500
pkt_pts_time=230.230000
pkt_pts_time=230.730500
pkt_pts_time=231.231000
pkt_pts_time=231.731500
pkt_pts_time=232.232000
pkt_pts_time=232.732500
pkt_pts_time=233.233000
pkt_pts_time=233.733500
pkt_pts_time=234.234000
pkt_pts_time=234.734500
pkt_pts_time=235.235000
pkt_pts_time=235.735500
pkt_pts_time=236.236000
pkt_pts_time=236.736500
pkt_pts_time=237.237000
pkt_pts_time=237.737500
pkt_pts_time=238.238000
pkt_pts_time=238.738500
pkt_pts_time=239.239000
pkt_pts_time=239.739500
pkt_pts_time=240.240000
pkt_pts_time=240.740500
pkt_pts_time=241.241000
pkt_pts_time=241.741500
pkt_pts_time=242.242000
pkt_pts_time=242.742500
pkt_pts_time=243.243000
pkt_pts_time=243.743500
pkt_pts_time=244.244000
pkt_pts_time=244.744500
pkt_pts_time=245.245000
pkt_pts_time=245.745500
pkt_pts_time=246.246000
pkt_pts_time=246.746500
pkt_pts_time=247.247000
pkt_pts_time=247.747500
